<?xml version="1.0" encoding="UTF-8"?>
<svg id="Layer_1" xmlns="http://www.w3.org/2000/svg" version="1.1" viewBox="0 0 286.54 163.61">
  <!-- Generator: Adobe Illustrator 29.5.1, SVG Export Plug-In . SVG Version: 2.1.0 Build 141)  -->
  <defs>
    <style>
      .st0 {
        font-size: 4.95px;
      }

      .st0, .st1, .st2, .st3, .st4, .st5, .st6, .st7, .st8 {
        font-family: saryA-Regular, 'sary - A';
      }

      .st0, .st9 {
        fill: #171220;
      }

      .st10 {
        stroke-width: .11px;
      }

      .st10, .st11, .st12 {
        fill: none;
        stroke: #8d74b4;
        stroke-linecap: round;
        stroke-linejoin: round;
      }

      .st11 {
        stroke-width: .1px;
      }

      .st1 {
        font-size: 3.87px;
      }

      .st1, .st2, .st3, .st4, .st5, .st6, .st7, .st13, .st8 {
        fill: #8d74b4;
      }

      .st2 {
        font-size: 4.29px;
      }

      .st3 {
        font-size: 3.76px;
      }

      .st4 {
        font-size: 3.77px;
      }

      .st5 {
        font-size: 5.38px;
      }

      .st6 {
        font-size: 8.07px;
      }

      .st7 {
        font-size: 7.55px;
      }

      .st14 {
        fill: #f7f8f8;
      }

      .st15 {
        fill: #63448f;
      }

      .st12 {
        stroke-width: .18px;
      }

      .st16 {
        opacity: .15;
      }

      .st8 {
        font-size: 16.34px;
      }
    </style>
  </defs>
  <path class="st9" d="M195.31,65.4H27.01c-1.06,0-2.07.42-2.82,1.17l-8,8c-.75.75-1.17,1.76-1.17,2.82v69.51c0,1.54,1.25,2.78,2.78,2.78h177.5c1.54,0,2.78-1.25,2.78-2.78v-78.71c0-1.54-1.25-2.78-2.78-2.78Z"/>
  <path class="st9" d="M204.25,65.4h55.48c1.06,0,2.07.42,2.82,1.17l8,8c.75.75,1.17,1.76,1.17,2.82v69.51c0,1.54-1.25,2.78-2.78,2.78h-64.68c-1.54,0-2.78-1.25-2.78-2.78v-78.71c0-1.54,1.25-2.78,2.78-2.78Z"/>
  <path class="st15" d="M16.08,70.44l4.14-4.14c.39-.39.11-1.05-.43-1.05h-3.28c-.81,0-1.47.66-1.47,1.47v3.28c0,.55.66.82,1.05.43Z"/>
  <line class="st12" x1="94.69" y1="69.2" x2="94.69" y2="132.44"/>
  <path class="st9" d="M195.31,63.34H27.01c-1.06,0-2.07-.42-2.82-1.17l-8-8c-.75-.75-1.17-1.76-1.17-2.82V16.78c0-1.54,1.25-2.78,2.78-2.78h177.5c1.54,0,2.78,1.25,2.78,2.78v43.77c0,1.54-1.25,2.78-2.78,2.78Z"/>
  <path class="st15" d="M16.08,58.15l4.14,4.14c.39.39.11,1.05-.43,1.05h-3.28c-.81,0-1.47-.66-1.47-1.47v-3.28c0-.55.66-.82,1.05-.43Z"/>
  <rect class="st11" x="17.71" y="139.8" width="32.81" height="6.98" rx="1.33" ry="1.33"/>
  <path class="st15" d="M19.38,54.23l-1.46-1.46c-.65-.65-1.01-1.53-1.01-2.44V18.15c0-1.14.93-2.07,2.07-2.07h116.43c1.14,0,2.07.93,2.07,2.07v32.17c0,.92-.36,1.79-1.01,2.44l-1.46,1.46c-.65.65-1.53,1.01-2.44,1.01H21.83c-.92,0-1.79-.36-2.44-1.01Z"/>
  <text class="st7" transform="translate(20.39 50.07)"><tspan x="0" y="0">title here</tspan></text>
  <g>
    <path class="st13" d="M27.99,59.19v-.32h.8v.32h-.8ZM28.59,60.66c-.15,0-.25-.04-.32-.12s-.1-.2-.1-.35v-1.83h.35v1.84s0,.08.03.1c.02.02.04.04.08.04h.17v.33h-.2Z"/>
    <path class="st13" d="M29.84,60.68c-.22,0-.38-.04-.49-.13-.11-.09-.16-.23-.16-.42,0-.18.05-.31.15-.4.1-.09.25-.13.45-.13h.51l.02.28h-.53c-.09,0-.16.02-.2.06-.05.04-.07.1-.07.19,0,.09.03.16.09.2.06.04.15.07.27.07.13,0,.23-.01.3-.04.07-.03.1-.07.1-.13l.04.25s-.07.09-.11.12c-.05.03-.1.05-.16.07-.06.01-.12.02-.2.02ZM30.28,60.65v-1.13c0-.12-.03-.21-.09-.27-.06-.06-.15-.1-.26-.1-.07,0-.14.01-.21.03-.07.02-.13.05-.18.09l-.25-.17c.07-.08.16-.14.27-.19.11-.04.23-.07.37-.07.22,0,.4.06.52.17s.18.28.18.49v1.14h-.33Z"/>
    <path class="st13" d="M31.14,60.65v-2.49h.35v2.49h-.35ZM31.27,60.39l.02-.42.92-1.1h.41l-1.35,1.52ZM32.33,60.65l-.62-1.03.22-.23.78,1.26h-.38Z"/>
    <path class="st13" d="M33.73,60.68c-.25,0-.44-.07-.58-.21s-.2-.33-.2-.59v-.2c0-.27.07-.47.2-.62.13-.15.32-.22.55-.22.22,0,.4.08.52.25.12.16.18.39.18.69v.12h-1.2v-.28h.87c0-.14-.05-.26-.11-.34s-.15-.12-.26-.12c-.13,0-.23.04-.31.13s-.11.21-.11.37v.23c0,.15.04.26.12.34.08.08.19.12.33.12.07,0,.14-.01.21-.04.07-.03.13-.07.19-.12l.23.23c-.09.08-.19.15-.3.2-.11.05-.22.07-.33.07Z"/>
    <path class="st13" d="M36.17,58.16v2.03s0,.08.03.1c.02.02.04.04.08.04h.17v.33h-.21c-.13,0-.23-.04-.31-.12-.07-.08-.11-.2-.11-.35v-2.03h.35Z"/>
    <path class="st13" d="M37.52,60.68c-.23,0-.41-.07-.54-.2-.13-.13-.19-.33-.19-.57v-.29c0-.24.06-.43.19-.57s.31-.2.54-.2.41.07.54.2.19.32.19.57v.29c0,.25-.06.43-.19.57-.13.13-.31.2-.54.2ZM37.52,60.35c.12,0,.22-.04.28-.12.07-.08.1-.18.1-.32v-.29c0-.14-.03-.25-.1-.32-.07-.08-.16-.11-.28-.11s-.21.04-.28.11-.1.18-.1.32v.29c0,.14.03.25.1.32.07.08.16.12.28.12Z"/>
    <path class="st13" d="M38.75,60.65v-1.78h.35v1.78h-.35ZM39.83,60.65v-1.08c0-.13-.03-.22-.1-.29-.06-.07-.16-.1-.27-.1s-.2.03-.26.09c-.06.06-.09.15-.09.26l-.04-.34c.05-.11.13-.19.21-.25.09-.06.19-.09.29-.09.19,0,.34.06.45.19.11.13.16.3.16.54v1.08h-.35Z"/>
    <path class="st13" d="M41.28,60.69c-.2,0-.35-.06-.46-.19-.11-.13-.16-.3-.16-.53v-.39c0-.23.05-.41.16-.54.1-.13.25-.19.44-.19.1,0,.2.03.29.08.09.05.16.13.21.23l-.04.36c0-.08-.01-.14-.04-.19s-.07-.09-.12-.12c-.05-.03-.12-.04-.19-.04-.12,0-.2.04-.27.11-.06.07-.1.17-.1.3v.39c0,.13.03.23.1.3s.15.11.27.11c.07,0,.14-.01.19-.04.05-.03.09-.07.12-.13.03-.05.04-.12.04-.2l.02.38c-.03.08-.09.15-.17.21-.08.06-.18.1-.31.1ZM41.31,61.38c-.13,0-.25-.03-.36-.08s-.19-.12-.25-.21l.24-.21c.05.06.1.11.16.15s.13.05.2.05c.13,0,.24-.04.31-.11.07-.07.11-.18.11-.31v-1.78h.35v1.73c0,.25-.07.44-.2.57-.13.13-.32.2-.56.2Z"/>
    <path class="st13" d="M43.55,60.65v-2.49h.35v2.49h-.35ZM44.35,60.68c-.11,0-.21-.03-.29-.08-.08-.05-.14-.13-.18-.23l.02-.37c0,.08.01.14.04.2s.07.09.12.12c.05.03.12.04.19.04.12,0,.21-.04.27-.11s.09-.17.09-.3v-.39c0-.13-.03-.23-.09-.3-.06-.07-.15-.11-.27-.11-.07,0-.14.01-.19.04s-.09.07-.12.12-.04.12-.04.19l-.04-.34c.05-.1.12-.18.21-.24s.18-.08.29-.08c.19,0,.34.06.44.19.1.13.16.3.16.54v.39c0,.23-.05.4-.16.53-.11.13-.26.19-.45.19Z"/>
    <path class="st13" d="M45.46,60.65v-1.78h.35v1.78h-.35ZM46.44,59.3s-.07-.07-.12-.09-.1-.03-.16-.03c-.11,0-.2.03-.26.09s-.09.15-.09.25l-.04-.34c.05-.11.12-.19.21-.25.09-.06.18-.09.29-.09.08,0,.15.01.22.04s.12.06.17.1l-.23.31Z"/>
    <path class="st13" d="M47.65,60.68c-.25,0-.44-.07-.58-.21s-.2-.33-.2-.59v-.2c0-.27.07-.47.2-.62.13-.15.32-.22.55-.22.22,0,.4.08.52.25.12.16.18.39.18.69v.12h-1.2v-.28h.87c0-.14-.05-.26-.11-.34s-.15-.12-.26-.12c-.13,0-.23.04-.31.13s-.11.21-.11.37v.23c0,.15.04.26.12.34.08.08.19.12.33.12.07,0,.14-.01.21-.04.07-.03.13-.07.19-.12l.23.23c-.09.08-.19.15-.3.2-.11.05-.22.07-.33.07Z"/>
    <path class="st13" d="M49.37,60.68c-.22,0-.38-.04-.49-.13-.11-.09-.16-.23-.16-.42,0-.18.05-.31.15-.4.1-.09.25-.13.45-.13h.51l.02.28h-.53c-.09,0-.16.02-.2.06-.05.04-.07.1-.07.19,0,.09.03.16.09.2.06.04.15.07.27.07.13,0,.23-.01.3-.04.07-.03.1-.07.1-.13l.04.25s-.07.09-.11.12c-.05.03-.1.05-.16.07-.06.01-.12.02-.2.02ZM49.81,60.65v-1.13c0-.12-.03-.21-.09-.27-.06-.06-.15-.1-.26-.1-.07,0-.14.01-.21.03-.07.02-.13.05-.18.09l-.25-.17c.07-.08.16-.14.27-.19.11-.04.23-.07.37-.07.22,0,.4.06.52.17s.18.28.18.49v1.14h-.33Z"/>
    <path class="st13" d="M50.54,59.19v-.32h.8v.32h-.8ZM51.14,60.66c-.15,0-.25-.04-.32-.12s-.1-.2-.1-.35v-1.83h.35v1.84s0,.08.03.1c.02.02.04.04.08.04h.17v.33h-.2Z"/>
    <path class="st13" d="M51.82,60.65v-2.49h.35v2.49h-.35ZM52.9,60.65v-1.08c0-.13-.03-.22-.1-.29-.06-.07-.16-.1-.27-.1s-.2.03-.26.09c-.06.06-.09.14-.09.25l-.04-.34c.05-.11.13-.19.21-.25.09-.06.19-.09.29-.09.19,0,.34.06.45.19.11.13.16.3.16.54v1.08h-.35Z"/>
    <path class="st13" d="M55.29,60.68c-.22,0-.38-.04-.49-.13-.11-.09-.16-.23-.16-.42,0-.18.05-.31.15-.4.1-.09.25-.13.45-.13h.51l.02.28h-.53c-.09,0-.16.02-.2.06-.05.04-.07.1-.07.19,0,.09.03.16.09.2.06.04.15.07.27.07.13,0,.23-.01.3-.04.07-.03.1-.07.1-.13l.04.25s-.07.09-.11.12c-.05.03-.1.05-.16.07-.06.01-.12.02-.2.02ZM55.73,60.65v-1.13c0-.12-.03-.21-.09-.27-.06-.06-.15-.1-.26-.1-.07,0-.14.01-.21.03-.07.02-.13.05-.18.09l-.25-.17c.07-.08.16-.14.27-.19.11-.04.23-.07.37-.07.22,0,.4.06.52.17s.18.28.18.49v1.14h-.33Z"/>
    <path class="st13" d="M56.45,59.17v-.3h.89v.3h-.89ZM56.64,60.65v-2.02c0-.16.04-.27.11-.35s.18-.12.34-.12h.26v.33h-.25s-.06.01-.08.04c-.02.03-.02.06-.02.09v2.02h-.35Z"/>
    <path class="st13" d="M57.56,59.19v-.32h.8v.32h-.8ZM58.16,60.66c-.15,0-.25-.04-.32-.12s-.1-.2-.1-.35v-1.83h.35v1.84s0,.08.03.1c.02.02.04.04.08.04h.17v.33h-.2Z"/>
    <path class="st13" d="M59.58,60.68c-.25,0-.44-.07-.58-.21s-.2-.33-.2-.59v-.2c0-.27.07-.47.2-.62.13-.15.32-.22.55-.22.22,0,.4.08.52.25.12.16.18.39.18.69v.12h-1.2v-.28h.87c0-.14-.05-.26-.11-.34s-.15-.12-.26-.12c-.13,0-.23.04-.31.13s-.11.21-.11.37v.23c0,.15.04.26.12.34.08.08.19.12.33.12.07,0,.14-.01.21-.04.07-.03.13-.07.19-.12l.23.23c-.09.08-.19.15-.3.2-.11.05-.22.07-.33.07Z"/>
    <path class="st13" d="M60.73,60.65v-1.78h.35v1.78h-.35ZM61.71,59.3s-.07-.07-.12-.09-.1-.03-.16-.03c-.11,0-.2.03-.26.09s-.09.15-.09.25l-.04-.34c.05-.11.12-.19.21-.25.09-.06.18-.09.29-.09.08,0,.15.01.22.04s.12.06.17.1l-.23.31Z"/>
    <path class="st13" d="M63.03,59.19v-.32h.8v.32h-.8ZM63.63,60.66c-.15,0-.25-.04-.32-.12s-.1-.2-.1-.35v-1.83h.35v1.84s0,.08.03.1c.02.02.04.04.08.04h.17v.33h-.2Z"/>
    <path class="st13" d="M64.32,60.65v-2.49h.35v2.49h-.35ZM65.4,60.65v-1.08c0-.13-.03-.22-.1-.29-.06-.07-.16-.1-.27-.1s-.2.03-.26.09c-.06.06-.09.14-.09.25l-.04-.34c.05-.11.13-.19.21-.25.09-.06.19-.09.29-.09.19,0,.34.06.45.19.11.13.16.3.16.54v1.08h-.35Z"/>
    <path class="st13" d="M67.16,60.65v-.37h.37v.37h-.37Z"/>
    <path class="st13" d="M67.95,60.65v-.37h.37v.37h-.37Z"/>
  </g>
  <g>
    <path class="st13" d="M97.64,60.68c-.16,0-.3-.02-.43-.07-.13-.05-.24-.12-.34-.21l.21-.26c.1.07.19.13.29.17s.19.05.28.05c.14,0,.24-.02.31-.06.07-.04.1-.11.1-.19,0-.07-.02-.11-.07-.14-.05-.03-.11-.05-.18-.05-.08,0-.16-.02-.24-.02-.07,0-.14-.01-.21-.03-.07-.01-.14-.03-.19-.06-.06-.03-.1-.08-.14-.14-.03-.06-.05-.14-.05-.25,0-.19.06-.33.17-.42s.29-.14.52-.14c.14,0,.27.02.39.06.12.04.23.09.34.17l-.21.25c-.09-.06-.18-.1-.26-.13-.09-.03-.17-.04-.25-.04-.12,0-.21.02-.27.06-.06.04-.09.1-.09.18,0,.05.02.09.06.12.04.02.1.04.16.04s.14.01.22.02c.07,0,.15.01.23.02s.15.04.21.07c.06.03.12.08.15.15s.06.16.06.28c0,.19-.06.33-.19.43s-.31.14-.56.14Z"/>
    <path class="st13" d="M98.69,59.19v-.32h.8v.32h-.8ZM99.29,60.66c-.15,0-.25-.04-.32-.12s-.1-.2-.1-.35v-1.83h.35v1.84s0,.08.03.1c.02.02.04.04.08.04h.17v.33h-.2Z"/>
    <path class="st13" d="M100.54,60.68c-.22,0-.38-.04-.49-.13-.11-.09-.16-.23-.16-.42,0-.18.05-.31.15-.4.1-.09.25-.13.45-.13h.51l.02.28h-.53c-.09,0-.16.02-.2.06-.05.04-.07.1-.07.19,0,.09.03.16.09.2.06.04.15.07.27.07.13,0,.23-.01.3-.04.07-.03.1-.07.1-.13l.04.25s-.07.09-.11.12c-.05.03-.1.05-.16.07-.06.01-.12.02-.2.02ZM100.98,60.65v-1.13c0-.12-.03-.21-.09-.27-.06-.06-.15-.1-.26-.1-.07,0-.14.01-.21.03-.07.02-.13.05-.18.09l-.25-.17c.07-.08.16-.14.27-.19.11-.04.23-.07.37-.07.22,0,.4.06.52.17s.18.28.18.49v1.14h-.33Z"/>
    <path class="st13" d="M101.7,59.19v-.32h.8v.32h-.8ZM102.3,60.66c-.15,0-.25-.04-.32-.12s-.1-.2-.1-.35v-1.83h.35v1.84s0,.08.03.1c.02.02.04.04.08.04h.17v.33h-.2Z"/>
    <path class="st13" d="M103.33,58.87v1.08c0,.12.03.22.09.29.06.07.15.1.27.1s.2-.03.27-.09.09-.15.09-.26l.02.37c-.03.08-.09.15-.17.21s-.18.09-.31.09c-.2,0-.35-.06-.46-.19-.11-.13-.16-.3-.16-.53v-1.08h.35ZM104.06,60.65v-1.78h.35v1.78h-.35Z"/>
    <path class="st13" d="M105.57,60.68c-.16,0-.3-.02-.43-.07-.13-.05-.24-.12-.34-.21l.21-.26c.1.07.19.13.29.17s.19.05.28.05c.14,0,.24-.02.31-.06.07-.04.1-.11.1-.19,0-.07-.02-.11-.07-.14-.05-.03-.11-.05-.18-.05-.08,0-.16-.02-.24-.02-.07,0-.14-.01-.21-.03-.07-.01-.14-.03-.19-.06-.06-.03-.1-.08-.14-.14-.03-.06-.05-.14-.05-.25,0-.19.06-.33.17-.42s.29-.14.52-.14c.14,0,.27.02.39.06.12.04.23.09.34.17l-.21.25c-.09-.06-.18-.1-.26-.13-.09-.03-.17-.04-.25-.04-.12,0-.21.02-.27.06-.06.04-.09.1-.09.18,0,.05.02.09.06.12.04.02.1.04.16.04s.14.01.22.02c.07,0,.15.01.23.02s.15.04.21.07c.06.03.12.08.15.15s.06.16.06.28c0,.19-.06.33-.19.43s-.31.14-.56.14Z"/>
    <path class="st13" d="M107.64,59.22v-.37h.37v.37h-.37ZM107.64,60.65v-.37h.37v.37h-.37Z"/>
    <path class="st13" d="M109.44,61.38v-2.5h.35v2.5h-.35ZM110.23,60.68c-.11,0-.21-.03-.29-.08-.08-.05-.14-.13-.18-.23l.02-.37c0,.08.01.14.04.2s.07.09.12.12c.05.03.12.04.19.04.12,0,.21-.04.27-.11s.09-.17.09-.3v-.39c0-.13-.03-.23-.09-.3-.06-.07-.15-.11-.27-.11-.07,0-.14.01-.19.04s-.09.07-.12.12-.04.12-.04.19l-.04-.34c.05-.1.12-.18.21-.24s.18-.08.29-.08c.19,0,.34.06.44.19.1.13.16.3.16.54v.39c0,.23-.05.4-.16.53-.11.13-.26.19-.45.19Z"/>
    <path class="st13" d="M111.92,60.68c-.22,0-.38-.04-.49-.13-.11-.09-.16-.23-.16-.42,0-.18.05-.31.15-.4.1-.09.25-.13.45-.13h.51l.02.28h-.53c-.09,0-.16.02-.2.06-.05.04-.07.1-.07.19,0,.09.03.16.09.2.06.04.15.07.27.07.13,0,.23-.01.3-.04.07-.03.1-.07.1-.13l.04.25s-.07.09-.11.12c-.05.03-.1.05-.16.07-.06.01-.12.02-.2.02ZM112.35,60.65v-1.13c0-.12-.03-.21-.09-.27-.06-.06-.15-.1-.26-.1-.07,0-.14.01-.21.03-.07.02-.13.05-.18.09l-.25-.17c.07-.08.16-.14.27-.19.11-.04.23-.07.37-.07.22,0,.4.06.52.17s.18.28.18.49v1.14h-.33Z"/>
    <path class="st13" d="M113.57,58.87v1.08c0,.12.03.22.09.29.06.07.15.1.27.1s.2-.03.27-.09.09-.15.09-.26l.02.37c-.03.08-.09.15-.17.21s-.18.09-.31.09c-.2,0-.35-.06-.46-.19-.11-.13-.16-.3-.16-.53v-1.08h.35ZM114.29,60.65v-1.78h.35v1.78h-.35Z"/>
    <path class="st13" d="M115.8,60.68c-.16,0-.3-.02-.43-.07-.13-.05-.24-.12-.34-.21l.21-.26c.1.07.19.13.29.17s.19.05.28.05c.14,0,.24-.02.31-.06.07-.04.1-.11.1-.19,0-.07-.02-.11-.07-.14-.05-.03-.11-.05-.18-.05-.08,0-.16-.02-.24-.02-.07,0-.14-.01-.21-.03-.07-.01-.14-.03-.19-.06-.06-.03-.1-.08-.14-.14-.03-.06-.05-.14-.05-.25,0-.19.06-.33.17-.42s.29-.14.52-.14c.14,0,.27.02.39.06.12.04.23.09.34.17l-.21.25c-.09-.06-.18-.1-.26-.13-.09-.03-.17-.04-.25-.04-.12,0-.21.02-.27.06-.06.04-.09.1-.09.18,0,.05.02.09.06.12.04.02.1.04.16.04s.14.01.22.02c.07,0,.15.01.23.02s.15.04.21.07c.06.03.12.08.15.15s.06.16.06.28c0,.19-.06.33-.19.43s-.31.14-.56.14Z"/>
    <path class="st13" d="M117.72,60.68c-.25,0-.44-.07-.58-.21s-.2-.33-.2-.59v-.2c0-.27.07-.47.2-.62.13-.15.32-.22.55-.22.22,0,.4.08.52.25.12.16.18.39.18.69v.12h-1.2v-.28h.87c0-.14-.05-.26-.11-.34s-.15-.12-.26-.12c-.13,0-.23.04-.31.13s-.11.21-.11.37v.23c0,.15.04.26.12.34.08.08.19.12.33.12.07,0,.14-.01.21-.04.07-.03.13-.07.19-.12l.23.23c-.09.08-.19.15-.3.2-.11.05-.22.07-.33.07Z"/>
    <path class="st13" d="M119.43,60.69c-.2,0-.35-.06-.46-.19-.11-.13-.16-.3-.16-.53v-.39c0-.23.05-.41.16-.54.1-.13.25-.19.44-.19.1,0,.2.03.29.08.09.05.16.13.21.23l-.04.36c0-.08-.01-.14-.04-.19s-.07-.09-.12-.12c-.05-.03-.12-.04-.19-.04-.12,0-.2.04-.27.11-.06.07-.1.17-.1.3v.39c0,.13.03.23.1.3s.15.11.27.11c.07,0,.14-.01.19-.04.05-.03.09-.07.12-.13.03-.05.04-.12.04-.2l.02.38c-.03.08-.09.15-.17.21-.08.06-.18.1-.31.1ZM119.88,60.65v-2.49h.35v2.49h-.35Z"/>
  </g>
  <g>
    <text class="st3" transform="translate(27.31 144.65)"><tspan x="0" y="0">delete</tspan></text>
    <path class="st13" d="M22.62,142.31c.08,0,.14.07.14.15l-.18,2.34c-.03.18-.05.25-.24.27-.49.04-1.48.04-1.97,0-.15-.01-.21-.06-.23-.21l-.19-2.39c0-.08.06-.15.14-.15h2.54ZM20.73,142.72l-.2.02.15,1.92.2-.02-.15-1.92ZM21.45,142.73h-.2v1.91h.2v-1.91ZM21.97,142.73l-.15,1.91.2.02.15-1.91-.2-.02Z"/>
    <path class="st13" d="M19.81,141.95l.03-.28.84-.09s.02-.19.2-.22.71-.02.9,0c.22.02.23.23.23.23l.89.08v.28s-3.09,0-3.09,0Z"/>
  </g>
  <path class="st13" d="M133.14,18.89h-6.68c-.5,0-.9.4-.9.9v31.75c0,.5.4.9.9.9h4.03c.74,0,1.46-.3,1.99-.82l1.34-1.34c.53-.53.82-1.24.82-1.99v-27.89c0-.83-.67-1.51-1.51-1.51Z"/>
  <g>
    <path class="st15" d="M127.84,27.4l.4.4c.09.09.24.09.33,0l1.43-1.43c.09-.09.24-.09.33,0l1.43,1.43c.09.09.24.09.33,0l.4-.4c.09-.09.09-.24,0-.33l-2.16-2.16c-.09-.09-.24-.09-.33,0l-2.16,2.16c-.09.09-.09.24,0,.33Z"/>
    <path class="st15" d="M127.84,33.25l.4.4c.09.09.24.09.33,0l1.43-1.43c.09-.09.24-.09.33,0l1.43,1.43c.09.09.24.09.33,0l.4-.4c.09-.09.09-.24,0-.33l-2.16-2.16c-.09-.09-.24-.09-.33,0l-2.16,2.16c-.09.09-.09.24,0,.33Z"/>
    <path class="st15" d="M127.84,39.11l.4.4c.09.09.24.09.33,0l1.43-1.43c.09-.09.24-.09.33,0l1.43,1.43c.09.09.24.09.33,0l.4-.4c.09-.09.09-.24,0-.33l-2.16-2.16c-.09-.09-.24-.09-.33,0l-2.16,2.16c-.09.09-.09.24,0,.33Z"/>
    <path class="st15" d="M127.84,44.97l.4.4c.09.09.24.09.33,0l1.43-1.43c.09-.09.24-.09.33,0l1.43,1.43c.09.09.24.09.33,0l.4-.4c.09-.09.09-.24,0-.33l-2.16-2.16c-.09-.09-.24-.09-.33,0l-2.16,2.16c-.09.09-.09.24,0,.33Z"/>
  </g>
  <g>
    <text class="st2" transform="translate(207.4 81.39)"><tspan x="0" y="0">08:19 pm</tspan></text>
    <g>
      <path class="st13" d="M208.03,75.02c-.16,0-.3-.02-.43-.07-.13-.05-.24-.12-.34-.21l.21-.26c.1.07.19.13.29.17s.19.05.28.05c.14,0,.24-.02.31-.06.07-.04.1-.11.1-.19,0-.07-.02-.11-.07-.14-.05-.03-.11-.05-.18-.05-.08,0-.16-.02-.24-.02-.07,0-.14-.01-.21-.03-.07-.01-.14-.03-.19-.06-.06-.03-.1-.08-.14-.14-.03-.06-.05-.14-.05-.25,0-.19.06-.33.17-.42s.29-.14.52-.14c.14,0,.27.02.39.06.12.04.23.09.34.17l-.21.25c-.09-.06-.18-.1-.26-.13-.09-.03-.17-.04-.25-.04-.12,0-.21.02-.27.06-.06.04-.09.1-.09.18,0,.05.02.09.06.12.04.02.1.04.16.04s.14.01.22.02c.07,0,.15.01.23.02s.15.04.21.07c.06.03.12.08.15.15s.06.16.06.28c0,.19-.06.33-.19.43s-.31.14-.56.14Z"/>
      <path class="st13" d="M209.08,73.53v-.32h.8v.32h-.8ZM209.68,75c-.15,0-.25-.04-.32-.12s-.1-.2-.1-.35v-1.83h.35v1.84s0,.08.03.1c.02.02.04.04.08.04h.17v.33h-.2Z"/>
      <path class="st13" d="M210.93,75.02c-.22,0-.38-.04-.49-.13-.11-.09-.16-.23-.16-.42,0-.18.05-.31.15-.4.1-.09.25-.13.45-.13h.51l.02.28h-.53c-.09,0-.16.02-.2.06-.05.04-.07.1-.07.19,0,.09.03.16.09.2.06.04.15.07.27.07.13,0,.23-.01.3-.04.07-.03.1-.07.1-.13l.04.25s-.07.09-.11.12c-.05.03-.1.05-.16.07-.06.01-.12.02-.2.02ZM211.37,75v-1.13c0-.12-.03-.21-.09-.27-.06-.06-.15-.1-.26-.1-.07,0-.14.01-.21.03-.07.02-.13.05-.18.09l-.25-.17c.07-.08.16-.14.27-.19.11-.04.23-.07.37-.07.22,0,.4.06.52.17s.18.28.18.49v1.14h-.33Z"/>
      <path class="st13" d="M212.23,75v-1.78h.35v1.78h-.35ZM213.21,73.64s-.07-.07-.12-.09-.1-.03-.16-.03c-.11,0-.2.03-.26.09s-.09.15-.09.25l-.04-.34c.05-.11.12-.19.21-.25.09-.06.18-.09.29-.09.08,0,.15.01.22.04s.12.06.17.1l-.23.31Z"/>
      <path class="st13" d="M213.59,73.53v-.32h.8v.32h-.8ZM214.19,75c-.15,0-.25-.04-.32-.12s-.1-.2-.1-.35v-1.83h.35v1.84s0,.08.03.1c.02.02.04.04.08.04h.17v.33h-.2Z"/>
      <path class="st13" d="M215.6,75.02c-.25,0-.44-.07-.58-.21s-.2-.33-.2-.59v-.2c0-.27.07-.47.2-.62.13-.15.32-.22.55-.22.22,0,.4.08.52.25.12.16.18.39.18.69v.12h-1.2v-.28h.87c0-.14-.05-.26-.11-.34s-.15-.12-.26-.12c-.13,0-.23.04-.31.13s-.11.21-.11.37v.23c0,.15.04.26.12.34.08.08.19.12.33.12.07,0,.14-.01.21-.04.07-.03.13-.07.19-.12l.23.23c-.09.08-.19.15-.3.2-.11.05-.22.07-.33.07Z"/>
      <path class="st13" d="M217.32,75.03c-.2,0-.35-.06-.46-.19-.11-.13-.16-.3-.16-.53v-.39c0-.23.05-.41.16-.54.1-.13.25-.19.44-.19.1,0,.2.03.29.08.09.05.16.13.21.23l-.04.36c0-.08-.01-.14-.04-.19s-.07-.09-.12-.12c-.05-.03-.12-.04-.19-.04-.12,0-.2.04-.27.11-.06.07-.1.17-.1.3v.39c0,.13.03.23.1.3s.15.11.27.11c.07,0,.14-.01.19-.04.05-.03.09-.07.12-.13.03-.05.04-.12.04-.2l.02.38c-.03.08-.09.15-.17.21-.08.06-.18.1-.31.1ZM217.77,75v-2.49h.35v2.49h-.35Z"/>
      <path class="st13" d="M220.16,75.02c-.22,0-.38-.04-.49-.13-.11-.09-.16-.23-.16-.42,0-.18.05-.31.15-.4.1-.09.25-.13.45-.13h.51l.02.28h-.53c-.09,0-.16.02-.2.06-.05.04-.07.1-.07.19,0,.09.03.16.09.2.06.04.15.07.27.07.13,0,.23-.01.3-.04.07-.03.1-.07.1-.13l.04.25s-.07.09-.11.12c-.05.03-.1.05-.16.07-.06.01-.12.02-.2.02ZM220.6,75v-1.13c0-.12-.03-.21-.09-.27-.06-.06-.15-.1-.26-.1-.07,0-.14.01-.21.03-.07.02-.13.05-.18.09l-.25-.17c.07-.08.16-.14.27-.19.11-.04.23-.07.37-.07.22,0,.4.06.52.17s.18.28.18.49v1.14h-.33Z"/>
      <path class="st13" d="M221.32,73.53v-.32h.8v.32h-.8ZM221.92,75c-.15,0-.25-.04-.32-.12s-.1-.2-.1-.35v-1.83h.35v1.84s0,.08.03.1c.02.02.04.04.08.04h.17v.33h-.2Z"/>
    </g>
  </g>
  <path class="st13" d="M143.07,60.65l-1.46-1.46c-.65-.65-1.01-1.53-1.01-2.44v-22.7c0-1.14.93-2.07,2.07-2.07h50.78c1.14,0,2.07.93,2.07,2.07v22.7c0,.92-.36,1.79-1.01,2.44l-1.46,1.46c-.65.65-1.53,1.01-2.44,1.01h-45.08c-.92,0-1.79-.36-2.44-1.01Z"/>
  <path class="st9" d="M204.25,63.44h55.48c1.06,0,2.07-.42,2.82-1.17l8-8c.75-.75,1.17-1.76,1.17-2.82V16.89c0-1.54-1.25-2.78-2.78-2.78h-64.68c-1.54,0-2.78,1.25-2.78,2.78v43.77c0,1.54,1.25,2.78,2.78,2.78Z"/>
  <g>
    <g>
      <path class="st13" d="M261.19,27.41c.94,0,1.71.76,1.71,1.71v4.36c0,.79-.31,1.53-.87,2.09l-1.32,1.32c-.56.56-1.3.87-2.09.87h-44.69v-10.34h47.26M261.19,27.25h-47.42v10.67h44.85c.83,0,1.62-.33,2.21-.91l1.32-1.32c.58-.59.91-1.38.91-2.21v-4.36c0-1.03-.84-1.87-1.87-1.87h0Z"/>
      <path class="st13" d="M204.85,27.25c-.75,0-1.35.6-1.35,1.35v4.87c0,.83.33,1.62.91,2.21l1.32,1.32c.59.58,1.38.91,2.21.91h7.55v-10.67h-10.64Z"/>
    </g>
    <text class="st1" transform="translate(221.26 34.16)"><tspan x="0" y="0">challenge</tspan></text>
    <g>
      <path class="st15" d="M211.39,31.78h.86c.1,0,.19.09.19.19v.78c0,.11-.09.19-.19.19h-.86c-.11,0-.19-.09-.19-.19v-.78c0-.1.09-.19.19-.19Z"/>
      <path class="st15" d="M209.29,31.78h.86c.1,0,.19.09.19.19v.78c0,.11-.09.19-.19.19h-.86c-.1,0-.19-.09-.19-.19v-.78c0-.1.09-.19.19-.19Z"/>
      <path class="st15" d="M211.39,33.57h.86c.1,0,.19.09.19.19v.78c0,.11-.09.19-.19.19h-.86c-.1,0-.19-.09-.19-.19v-.78c0-.1.09-.19.19-.19Z"/>
      <path class="st15" d="M209.29,33.57h.86c.1,0,.19.09.19.19v.78c0,.11-.09.19-.19.19h-.86c-.1,0-.19-.09-.19-.19v-.78c0-.1.09-.19.19-.19Z"/>
      <path class="st15" d="M207.2,31.78h.86c.1,0,.19.09.19.19v.78c0,.11-.09.19-.19.19h-.86c-.1,0-.19-.09-.19-.19v-.78c0-.1.09-.19.19-.19Z"/>
      <path class="st15" d="M212.55,28.98h-5.67c-.44,0-.8.36-.8.8v4.28c0,.25.1.49.28.67l.74.74c.17.18.42.28.67.28h4.78c.44,0,.8-.36.8-.81v-5.17c0-.44-.36-.8-.8-.8ZM213.05,34.95c0,.27-.22.5-.5.5h-4.78c-.17,0-.33-.07-.45-.19l-.74-.74c-.12-.12-.19-.28-.19-.45v-2.99h6.66v3.87Z"/>
    </g>
  </g>
  <g>
    <g>
      <path class="st13" d="M261.19,40.01c.94,0,1.71.76,1.71,1.71v4.36c0,.79-.31,1.53-.87,2.09l-1.32,1.32c-.56.56-1.3.87-2.09.87h-44.69v-10.34h47.26M261.19,39.85h-47.42v10.67h44.85c.83,0,1.62-.33,2.21-.91l1.32-1.32c.58-.59.91-1.38.91-2.21v-4.36c0-1.03-.84-1.87-1.87-1.87h0Z"/>
      <path class="st13" d="M204.85,39.85c-.75,0-1.35.6-1.35,1.35v4.87c0,.83.33,1.62.91,2.21l1.32,1.32c.59.58,1.38.91,2.21.91h7.55v-10.67h-10.64Z"/>
    </g>
    <text class="st1" transform="translate(221.26 46.76)"><tspan x="0" y="0">timer</tspan></text>
    <path class="st15" d="M210.74,44.72l.53-.31.05-.03c.33-.19.54-.55.54-.93v-1.27c0-.27-.22-.49-.49-.49h-3.14c-.27,0-.49.22-.49.49v1.27c0,.39.21.74.54.93l.05.03.53.31c.42.24.42.85,0,1.09l-.53.31s0,0,0,0l-.05.03c-.33.19-.54.55-.54.93v1.27c0,.27.22.49.49.49h3.14c.27,0,.49-.22.49-.49v-1.27c0-.39-.21-.74-.54-.93l-.05-.03s0,0,0,0l-.53-.31c-.42-.24-.42-.85,0-1.09ZM211.03,47.4c.06.02.11.08.11.14v.48c0,.15-.12.28-.28.28h-2.13c-.15,0-.28-.12-.28-.28v-.48c0-.07.04-.12.11-.14.24-.07,1.17-.29,1.17-.77v-1.79c0-.18-.09-.34-.25-.43l-.87-.5c-.1-.06-.16-.16-.16-.28v-.38c0-.29.59.32,1.34.1.4-.12,1.34-.4,1.34-.19v.47c0,.11-.06.22-.16.28l-.87.5c-.15.09-.25.25-.25.43,0,.49,0,1.48,0,1.79,0,.56.92.7,1.17.77Z"/>
  </g>
  <g>
    <path class="st13" d="M261.19,51.61c.94,0,1.71.76,1.71,1.71v4.36c0,.79-.31,1.53-.87,2.09l-1.32,1.32c-.56.56-1.3.87-2.09.87h-44.69v-10.34h47.26M261.19,51.45h-47.42v10.67h44.85c.83,0,1.62-.33,2.21-.91l1.32-1.32c.58-.59.91-1.38.91-2.21v-4.36c0-1.03-.84-1.87-1.87-1.87h0Z"/>
    <path class="st13" d="M204.85,51.45c-.75,0-1.35.6-1.35,1.35v4.87c0,.83.33,1.62.91,2.21l1.32,1.32c.59.58,1.38.91,2.21.91h7.55v-10.67h-10.64Z"/>
  </g>
  <text class="st1" transform="translate(221.26 58.36)"><tspan x="0" y="0">countdown</tspan></text>
  <g>
    <path class="st15" d="M212.54,54.97l-.97-.97s-.11-.04-.16,0l-.28.28s-.04.11,0,.16l.24.24-.3.3c-.38-.3-.84-.51-1.35-.59v-.5h.9c.06,0,.11-.05.11-.11v-.67c0-.06-.05-.11-.11-.11h-2.68c-.06,0-.11.05-.11.11v.67c0,.06.05.11.11.11h.9v.5c-1.37.21-2.43,1.4-2.43,2.83,0,1.58,1.28,2.87,2.87,2.87s2.87-1.29,2.87-2.87c0-.68-.24-1.3-.63-1.79l.3-.3.27.27s.11.04.16,0l.28-.28s.04-.11,0-.16ZM211.71,57.22c0,1.34-1.08,2.42-2.42,2.42s-2.42-1.08-2.42-2.42,1.08-2.42,2.42-2.42c.55,0,1.05.18,1.45.49.18.14.34.3.48.48.3.4.49.91.49,1.45Z"/>
    <path class="st15" d="M210.29,55.51c-.3-.17-.64-.28-1.01-.28-1.1,0-1.99.89-1.99,1.99s.89,1.99,1.99,1.99,1.99-.89,1.99-1.99c0-.37-.11-.71-.28-1.01-.17-.29-.41-.53-.7-.7Z"/>
  </g>
  <g>
    <path class="st13" d="M261.19,15.81c.94,0,1.71.76,1.71,1.71v4.36c0,.79-.31,1.53-.87,2.09l-1.32,1.32c-.56.56-1.3.87-2.09.87h-43.4v-10.34h45.97M261.19,15.65h-46.14v10.67h43.57c.83,0,1.62-.33,2.21-.91l1.32-1.32c.58-.59.91-1.38.91-2.21v-4.36c0-1.03-.84-1.87-1.87-1.87h0Z"/>
    <path class="st13" d="M204.85,15.65c-.75,0-1.35.6-1.35,1.35v4.87c0,.83.33,1.62.91,2.21l1.32,1.32c.59.58,1.38.91,2.21.91h7.55v-10.67h-10.64Z"/>
  </g>
  <text class="st1" transform="translate(221.26 22.56)"><tspan x="0" y="0">alarm</tspan></text>
  <g>
    <g>
      <path class="st15" d="M213.81,19.88c0-1.45-1.17-2.62-2.62-2.62-.97,0-1.81.54-2.27,1.32.2,0,.38.03.55.11.38-.54,1-.9,1.71-.9,1.15,0,2.09.94,2.09,2.09s-.9,2.04-2.02,2.08c.01.06.02.12.03.18.03.12.07.15.17.26.02.02.05.05.07.07,1.28-.17,2.27-1.26,2.27-2.59Z"/>
      <path class="st15" d="M212.16,21.19l.17-.17s.04-.1,0-.14l-.94-.94s-.04-.1,0-.14l.42-.42s.04-.1,0-.14l-.17-.17s-.1-.04-.14,0l-.73.73s-.03.07-.01.11c.03.04.07.07.09.11l1.18,1.18s.1.04.14,0Z"/>
    </g>
    <g>
      <path class="st15" d="M209.52,19.25c.12.12.17.34.24.4.06.06.33.17.45.28.69.63.43,1.55.65,2.32.1.34.27.4.47.64.27.32.35.72-.18.78h-4.37c-.44-.04-.48-.35-.26-.68.17-.26.42-.37.53-.68.27-.79-.07-1.77.71-2.43.11-.09.36-.19.41-.24.03-.03.09-.19.12-.25.26-.43.87-.51,1.23-.15Z"/>
      <path class="st15" d="M209.8,24.06c-.14.95-1.54.95-1.67,0h1.67Z"/>
    </g>
  </g>
  <g>
    <path class="st13" d="M193.45,16.84c1.04,0,1.89.85,1.89,1.89v4.82c0,.87-.34,1.7-.96,2.31l-1.46,1.46c-.62.62-1.44.96-2.31.96h-38.46v-11.44h41.31M193.45,16.65h-41.49v11.81h38.64c.92,0,1.79-.36,2.44-1.01l1.46-1.46c.65-.65,1.01-1.53,1.01-2.44v-4.82c0-1.14-.93-2.07-2.07-2.07h0Z"/>
    <path class="st13" d="M142.09,16.65c-.83,0-1.5.67-1.5,1.5v5.4c0,.92.36,1.8,1.01,2.44l1.46,1.46c.65.65,1.53,1.01,2.44,1.01h8.36v-11.81h-11.78Z"/>
  </g>
  <path class="st15" d="M170.05,46.67l-3-3s-.1-.07-.17-.07h-.67c-.13,0-.24.11-.24.24v5.96c0,.13.11.24.24.24h.7c.06,0,.12-.02.17-.07l2.96-2.96c.09-.09.09-.24,0-.33Z"/>
  <g>
    <g>
      <path class="st13" d="M110,72.61v-2.49h.35v2.49h-.35ZM110.22,71.55v-.33h1.38v.33h-1.38ZM111.42,72.61v-2.49h.35v2.49h-.35Z"/>
      <path class="st13" d="M113.03,72.63c-.23,0-.41-.07-.54-.2-.13-.13-.19-.33-.19-.57v-.29c0-.24.06-.43.19-.57s.31-.2.54-.2.41.07.54.2.19.32.19.57v.29c0,.25-.06.43-.19.57-.13.13-.31.2-.54.2ZM113.03,72.3c.12,0,.22-.04.28-.12.07-.08.1-.18.1-.32v-.29c0-.14-.03-.25-.1-.32-.07-.08-.16-.11-.28-.11s-.21.04-.28.11-.1.18-.1.32v.29c0,.14.03.25.1.32.07.08.16.12.28.12Z"/>
      <path class="st13" d="M114.57,70.83v1.08c0,.12.03.22.09.29.06.07.15.1.27.1s.2-.03.27-.09.09-.15.09-.26l.02.37c-.03.08-.09.15-.17.21s-.18.09-.31.09c-.2,0-.35-.06-.46-.19-.11-.13-.16-.3-.16-.53v-1.08h.35ZM115.29,72.61v-1.78h.35v1.78h-.35Z"/>
      <path class="st13" d="M116.17,72.61v-1.78h.35v1.78h-.35ZM117.15,71.25s-.07-.07-.12-.09-.1-.03-.16-.03c-.11,0-.2.03-.26.09s-.09.15-.09.25l-.04-.34c.05-.11.12-.19.21-.25.09-.06.18-.09.29-.09.08,0,.15.01.22.04s.12.06.17.1l-.23.31Z"/>
      <path class="st13" d="M118.3,72.63c-.16,0-.3-.02-.43-.07-.13-.05-.24-.12-.34-.21l.21-.26c.1.07.19.13.29.17s.19.05.28.05c.14,0,.24-.02.31-.06.07-.04.1-.11.1-.19,0-.07-.02-.11-.07-.14-.05-.03-.11-.05-.18-.05-.08,0-.16-.02-.24-.02-.07,0-.14-.01-.21-.03-.07-.01-.14-.03-.19-.06-.06-.03-.1-.08-.14-.14-.03-.06-.05-.14-.05-.25,0-.19.06-.33.17-.42s.29-.14.52-.14c.14,0,.27.02.39.06.12.04.23.09.34.17l-.21.25c-.09-.06-.18-.1-.26-.13-.09-.03-.17-.04-.25-.04-.12,0-.21.02-.27.06-.06.04-.09.1-.09.18,0,.05.02.09.06.12.04.02.1.04.16.04s.14.01.22.02c.07,0,.15.01.23.02s.15.04.21.07c.06.03.12.08.15.15s.06.16.06.28c0,.19-.06.33-.19.43s-.31.14-.56.14Z"/>
    </g>
    <g>
      <path class="st13" d="M142.6,71.76l.73-1.65h.33v2.49h-.34v-1.87l.02.11-.61,1.41h-.24l-.61-1.38.02-.14v1.87h-.34v-2.49h.33l.73,1.65Z"/>
      <path class="st13" d="M144.24,70.47v-.35h.35v.35h-.35ZM144.24,72.61v-1.78h.35v1.78h-.35Z"/>
      <path class="st13" d="M145.12,72.61v-1.78h.35v1.78h-.35ZM146.2,72.61v-1.08c0-.13-.03-.22-.1-.29-.06-.07-.16-.1-.27-.1s-.2.03-.27.09-.09.15-.09.26l-.04-.34c.05-.11.13-.19.21-.25.09-.06.19-.09.29-.09.19,0,.34.06.45.19.11.13.16.3.16.54v1.08h-.35Z"/>
      <path class="st13" d="M147.43,70.83v1.08c0,.12.03.22.1.29.06.07.15.1.27.1s.21-.03.27-.09.09-.15.09-.26l.02.37c-.03.08-.09.15-.17.21s-.19.09-.31.09c-.2,0-.35-.06-.46-.19-.11-.13-.16-.3-.16-.53v-1.08h.35ZM148.15,72.61v-1.78h.35v1.78h-.35Z"/>
      <path class="st13" d="M148.9,71.14v-.32h.8v.32h-.8ZM149.5,72.62c-.15,0-.25-.04-.32-.12-.06-.08-.1-.2-.1-.35v-1.83h.35v1.84s0,.08.03.1c.02.02.04.04.08.04h.17v.33h-.2Z"/>
      <path class="st13" d="M150.91,72.63c-.25,0-.44-.07-.58-.21-.13-.14-.2-.33-.2-.59v-.2c0-.27.06-.47.2-.62.13-.15.32-.22.55-.22s.4.08.52.25c.12.16.18.39.18.69v.12h-1.2v-.28h.87c0-.14-.05-.26-.11-.34s-.15-.12-.26-.12c-.13,0-.23.04-.31.13-.07.09-.11.21-.11.37v.23c0,.15.04.26.12.34.08.08.19.12.33.12.07,0,.14-.01.21-.04s.13-.07.19-.12l.23.23c-.09.08-.19.15-.29.2-.11.05-.22.07-.33.07Z"/>
    </g>
    <g>
      <path class="st13" d="M172.93,72.63c-.12,0-.24-.01-.34-.03-.11-.02-.21-.06-.3-.1-.09-.05-.18-.1-.26-.17l.22-.27c.09.08.2.14.31.18s.24.06.37.06c.18,0,.32-.03.42-.1s.15-.16.15-.28h0c0-.1-.03-.17-.08-.22-.05-.05-.12-.09-.2-.11-.08-.03-.17-.04-.27-.06-.09-.02-.19-.03-.28-.06-.1-.02-.18-.06-.26-.1-.08-.05-.14-.11-.19-.2-.05-.09-.07-.2-.07-.35h0c0-.23.08-.41.23-.54.15-.13.37-.19.65-.19.13,0,.26.02.39.06.13.04.25.11.37.2l-.2.28c-.09-.07-.19-.12-.28-.16-.09-.03-.19-.05-.28-.05-.17,0-.3.03-.4.1-.09.07-.14.16-.14.29h0c0,.1.03.17.08.22s.13.08.21.11.18.05.29.07c.09.02.18.04.27.07.09.03.17.06.25.11.07.05.13.12.18.2.04.08.07.2.07.33h0c0,.23-.08.41-.24.54-.16.13-.39.19-.68.19Z"/>
      <path class="st13" d="M175.04,72.63c-.25,0-.44-.07-.58-.21s-.2-.33-.2-.59v-.2c0-.27.07-.47.2-.62.13-.15.32-.22.55-.22.22,0,.4.08.52.25.12.16.18.39.18.69v.12h-1.2v-.28h.87c0-.14-.05-.26-.11-.34s-.15-.12-.26-.12c-.13,0-.23.04-.31.13s-.11.21-.11.37v.23c0,.15.04.26.12.34.08.08.19.12.33.12.07,0,.14-.01.21-.04.07-.03.13-.07.19-.12l.23.23c-.09.08-.19.15-.3.2-.11.05-.22.07-.33.07Z"/>
      <path class="st13" d="M176.91,72.63c-.24,0-.43-.07-.57-.2-.13-.13-.2-.33-.2-.57v-.29c0-.24.07-.43.2-.57.13-.13.32-.2.57-.2.14,0,.27.02.38.07.11.05.2.12.27.21l-.25.23c-.05-.06-.11-.1-.17-.13-.07-.03-.14-.05-.21-.05-.14,0-.24.04-.31.11s-.11.18-.11.32v.29c0,.14.04.25.11.33.07.08.18.12.31.12.07,0,.14-.02.21-.05s.13-.08.17-.14l.25.24c-.07.09-.16.16-.27.21-.11.05-.24.07-.38.07Z"/>
      <path class="st13" d="M178.62,72.63c-.23,0-.41-.07-.54-.2-.13-.13-.19-.33-.19-.57v-.29c0-.24.06-.43.19-.57s.31-.2.54-.2.41.07.54.2.19.32.19.57v.29c0,.25-.06.43-.19.57-.13.13-.31.2-.54.2ZM178.62,72.3c.12,0,.22-.04.28-.12.07-.08.1-.18.1-.32v-.29c0-.14-.03-.25-.1-.32-.07-.08-.16-.11-.28-.11s-.21.04-.28.11-.1.18-.1.32v.29c0,.14.03.25.1.32.07.08.16.12.28.12Z"/>
      <path class="st13" d="M179.85,72.61v-1.78h.35v1.78h-.35ZM180.93,72.61v-1.08c0-.13-.03-.22-.1-.29-.06-.07-.16-.1-.27-.1s-.2.03-.26.09c-.06.06-.09.15-.09.26l-.04-.34c.05-.11.13-.19.21-.25.09-.06.19-.09.29-.09.19,0,.34.06.45.19.11.13.16.3.16.54v1.08h-.35Z"/>
      <path class="st13" d="M182.38,72.64c-.2,0-.35-.06-.46-.19-.11-.13-.16-.3-.16-.53v-.39c0-.23.05-.41.16-.54.1-.13.25-.19.44-.19.1,0,.2.03.29.08.09.05.16.13.21.23l-.04.36c0-.08-.01-.14-.04-.19s-.07-.09-.12-.12c-.05-.03-.12-.04-.19-.04-.12,0-.2.04-.27.11-.06.07-.1.17-.1.3v.39c0,.13.03.23.1.3s.15.11.27.11c.07,0,.14-.01.19-.04.05-.03.09-.07.12-.13.03-.05.04-.12.04-.2l.02.38c-.03.08-.09.15-.17.21-.08.06-.18.1-.31.1ZM182.82,72.61v-2.49h.35v2.49h-.35Z"/>
      <path class="st13" d="M184.33,72.63c-.16,0-.3-.02-.43-.07-.13-.05-.24-.12-.34-.21l.21-.26c.1.07.19.13.29.17s.19.05.28.05c.14,0,.24-.02.31-.06.07-.04.1-.11.1-.19,0-.07-.02-.11-.07-.14-.05-.03-.11-.05-.18-.05-.08,0-.16-.02-.24-.02-.07,0-.14-.01-.21-.03-.07-.01-.14-.03-.19-.06-.06-.03-.1-.08-.14-.14-.03-.06-.05-.14-.05-.25,0-.19.06-.33.17-.42s.29-.14.52-.14c.14,0,.27.02.39.06.12.04.23.09.34.17l-.21.25c-.09-.06-.18-.1-.26-.13-.09-.03-.17-.04-.25-.04-.12,0-.21.02-.27.06-.06.04-.09.1-.09.18,0,.05.02.09.06.12.04.02.1.04.16.04s.14.01.22.02c.07,0,.15.01.23.02s.15.04.21.07c.06.03.12.08.15.15s.06.16.06.28c0,.19-.06.33-.19.43s-.31.14-.56.14Z"/>
    </g>
    <text class="st8" transform="translate(100.69 108.7)"><tspan x="0" y="0">00:15:00</tspan></text>
    <g class="st16">
      <text class="st8" transform="translate(100.68 130.11)"><tspan x="0" y="0">01 16 01</tspan></text>
    </g>
    <g class="st16">
      <text class="st8" transform="translate(100.35 88.74)"><tspan x="0" y="0">99 14 59</tspan></text>
    </g>
  </g>
  <g>
    <path class="st13" d="M126.6,138.8h-28.98c-.46,0-.83.37-.83.83v3c0,.51.2,1,.56,1.36l.81.81c.36.36.85.56,1.36.56h25.5c.51,0,1-.2,1.36-.56l.81-.81c.36-.36.56-.85.56-1.36v-2.68c0-.63-.51-1.15-1.15-1.15Z"/>
    <text class="st0" transform="translate(99.2 143.74)"><tspan x="0" y="0">00:30:00</tspan></text>
  </g>
  <g>
    <path class="st13" d="M159.7,138.8h-28.98c-.46,0-.83.37-.83.83v3c0,.51.2,1,.56,1.36l.81.81c.36.36.85.56,1.36.56h25.5c.51,0,1-.2,1.36-.56l.81-.81c.36-.36.56-.85.56-1.36v-2.68c0-.63-.51-1.15-1.15-1.15Z"/>
    <text class="st0" transform="translate(131.98 143.74)"><tspan x="0" y="0">00:15:00</tspan></text>
  </g>
  <g>
    <path class="st13" d="M192.8,138.8h-28.98c-.46,0-.83.37-.83.83v3c0,.51.2,1,.56,1.36l.81.81c.36.36.85.56,1.36.56h25.5c.51,0,1-.2,1.36-.56l.81-.81c.36-.36.56-.85.56-1.36v-2.68c0-.63-.51-1.15-1.15-1.15Z"/>
    <text class="st0" transform="translate(165.08 143.74)"><tspan x="0" y="0">00:05:00</tspan></text>
  </g>
  <text class="st5" transform="translate(26.43 72.52)"><tspan x="0" y="0">title</tspan></text>
  <g>
    <path class="st13" d="M20.09,79.08v-.32h.8v.32h-.8ZM20.69,80.55c-.15,0-.25-.04-.32-.12s-.1-.2-.1-.35v-1.83h.35v1.84s0,.08.03.1c.02.02.04.04.08.04h.17v.33h-.2Z"/>
    <path class="st13" d="M21.95,80.57c-.22,0-.38-.04-.49-.13-.11-.09-.16-.23-.16-.42,0-.18.05-.31.15-.4.1-.09.25-.13.45-.13h.51l.02.28h-.53c-.09,0-.16.02-.2.06-.05.04-.07.1-.07.19,0,.09.03.16.09.2.06.04.15.07.27.07.13,0,.23-.01.3-.04.07-.03.1-.07.1-.13l.04.25s-.07.09-.11.12c-.05.03-.1.05-.16.07-.06.01-.12.02-.2.02ZM22.38,80.55v-1.13c0-.12-.03-.21-.09-.27-.06-.06-.15-.1-.26-.1-.07,0-.14.01-.21.03-.07.02-.13.05-.18.09l-.25-.17c.07-.08.16-.14.27-.19.11-.04.23-.07.37-.07.22,0,.4.06.52.17s.18.28.18.49v1.14h-.33Z"/>
    <path class="st13" d="M23.25,80.55v-2.49h.35v2.49h-.35ZM23.37,80.29l.02-.42.92-1.1h.41l-1.35,1.52ZM24.43,80.55l-.62-1.03.22-.23.78,1.26h-.38Z"/>
    <path class="st13" d="M25.83,80.57c-.25,0-.44-.07-.58-.21s-.2-.33-.2-.59v-.2c0-.27.07-.47.2-.62.13-.15.32-.22.55-.22.22,0,.4.08.52.25.12.16.18.39.18.69v.12h-1.2v-.28h.87c0-.14-.05-.26-.11-.34s-.15-.12-.26-.12c-.13,0-.23.04-.31.13s-.11.21-.11.37v.23c0,.15.04.26.12.34.08.08.19.12.33.12.07,0,.14-.01.21-.04.07-.03.13-.07.19-.12l.23.23c-.09.08-.19.15-.3.2-.11.05-.22.07-.33.07Z"/>
    <path class="st13" d="M28.28,78.05v2.03s0,.08.03.1c.02.02.04.04.08.04h.17v.33h-.21c-.13,0-.23-.04-.31-.12-.07-.08-.11-.2-.11-.35v-2.03h.35Z"/>
    <path class="st13" d="M29.62,80.57c-.23,0-.41-.07-.54-.2-.13-.13-.19-.33-.19-.57v-.29c0-.24.06-.43.19-.57s.31-.2.54-.2.41.07.54.2.19.32.19.57v.29c0,.25-.06.43-.19.57-.13.13-.31.2-.54.2ZM29.62,80.24c.12,0,.22-.04.28-.12.07-.08.1-.18.1-.32v-.29c0-.14-.03-.25-.1-.32-.07-.08-.16-.11-.28-.11s-.21.04-.28.11-.1.18-.1.32v.29c0,.14.03.25.1.32.07.08.16.12.28.12Z"/>
    <path class="st13" d="M30.86,80.55v-1.78h.35v1.78h-.35ZM31.94,80.55v-1.08c0-.13-.03-.22-.1-.29-.06-.07-.16-.1-.27-.1s-.2.03-.26.09c-.06.06-.09.15-.09.26l-.04-.34c.05-.11.13-.19.21-.25.09-.06.19-.09.29-.09.19,0,.34.06.45.19.11.13.16.3.16.54v1.08h-.35Z"/>
    <path class="st13" d="M33.38,80.58c-.2,0-.35-.06-.46-.19-.11-.13-.16-.3-.16-.53v-.39c0-.23.05-.41.16-.54.1-.13.25-.19.44-.19.1,0,.2.03.29.08.09.05.16.13.21.23l-.04.36c0-.08-.01-.14-.04-.19s-.07-.09-.12-.12c-.05-.03-.12-.04-.19-.04-.12,0-.2.04-.27.11-.06.07-.1.17-.1.3v.39c0,.13.03.23.1.3s.15.11.27.11c.07,0,.14-.01.19-.04.05-.03.09-.07.12-.13.03-.05.04-.12.04-.2l.02.38c-.03.08-.09.15-.17.21-.08.06-.18.1-.31.1ZM33.41,81.27c-.13,0-.25-.03-.36-.08s-.19-.12-.25-.21l.24-.21c.05.06.1.11.16.15s.13.05.2.05c.13,0,.24-.04.31-.11.07-.07.11-.18.11-.31v-1.78h.35v1.73c0,.25-.07.44-.2.57-.13.13-.32.2-.56.2Z"/>
    <path class="st13" d="M35.65,80.55v-2.49h.35v2.49h-.35ZM36.45,80.57c-.11,0-.21-.03-.29-.08-.08-.05-.14-.13-.18-.23l.02-.37c0,.08.01.14.04.2s.07.09.12.12c.05.03.12.04.19.04.12,0,.21-.04.27-.11s.09-.17.09-.3v-.39c0-.13-.03-.23-.09-.3-.06-.07-.15-.11-.27-.11-.07,0-.14.01-.19.04s-.09.07-.12.12-.04.12-.04.19l-.04-.34c.05-.1.12-.18.21-.24s.18-.08.29-.08c.19,0,.34.06.44.19.1.13.16.3.16.54v.39c0,.23-.05.4-.16.53-.11.13-.26.19-.45.19Z"/>
    <path class="st13" d="M37.56,80.55v-1.78h.35v1.78h-.35ZM38.54,79.19s-.07-.07-.12-.09-.1-.03-.16-.03c-.11,0-.2.03-.26.09s-.09.15-.09.25l-.04-.34c.05-.11.12-.19.21-.25.09-.06.18-.09.29-.09.08,0,.15.01.22.04s.12.06.17.1l-.23.31Z"/>
    <path class="st13" d="M39.75,80.57c-.25,0-.44-.07-.58-.21s-.2-.33-.2-.59v-.2c0-.27.07-.47.2-.62.13-.15.32-.22.55-.22.22,0,.4.08.52.25.12.16.18.39.18.69v.12h-1.2v-.28h.87c0-.14-.05-.26-.11-.34s-.15-.12-.26-.12c-.13,0-.23.04-.31.13s-.11.21-.11.37v.23c0,.15.04.26.12.34.08.08.19.12.33.12.07,0,.14-.01.21-.04.07-.03.13-.07.19-.12l.23.23c-.09.08-.19.15-.3.2-.11.05-.22.07-.33.07Z"/>
    <path class="st13" d="M41.48,80.57c-.22,0-.38-.04-.49-.13-.11-.09-.16-.23-.16-.42,0-.18.05-.31.15-.4.1-.09.25-.13.45-.13h.51l.02.28h-.53c-.09,0-.16.02-.2.06-.05.04-.07.1-.07.19,0,.09.03.16.09.2.06.04.15.07.27.07.13,0,.23-.01.3-.04.07-.03.1-.07.1-.13l.04.25s-.07.09-.11.12c-.05.03-.1.05-.16.07-.06.01-.12.02-.2.02ZM41.91,80.55v-1.13c0-.12-.03-.21-.09-.27-.06-.06-.15-.1-.26-.1-.07,0-.14.01-.21.03-.07.02-.13.05-.18.09l-.25-.17c.07-.08.16-.14.27-.19.11-.04.23-.07.37-.07.22,0,.4.06.52.17s.18.28.18.49v1.14h-.33Z"/>
    <path class="st13" d="M42.64,79.08v-.32h.8v.32h-.8ZM43.24,80.55c-.15,0-.25-.04-.32-.12s-.1-.2-.1-.35v-1.83h.35v1.84s0,.08.03.1c.02.02.04.04.08.04h.17v.33h-.2Z"/>
    <path class="st13" d="M43.92,80.55v-2.49h.35v2.49h-.35ZM45,80.55v-1.08c0-.13-.03-.22-.1-.29-.06-.07-.16-.1-.27-.1s-.2.03-.26.09c-.06.06-.09.14-.09.25l-.04-.34c.05-.11.13-.19.21-.25.09-.06.19-.09.29-.09.19,0,.34.06.45.19.11.13.16.3.16.54v1.08h-.35Z"/>
    <path class="st13" d="M47.39,80.57c-.22,0-.38-.04-.49-.13-.11-.09-.16-.23-.16-.42,0-.18.05-.31.15-.4.1-.09.25-.13.45-.13h.51l.02.28h-.53c-.09,0-.16.02-.2.06-.05.04-.07.1-.07.19,0,.09.03.16.09.2.06.04.15.07.27.07.13,0,.23-.01.3-.04.07-.03.1-.07.1-.13l.04.25s-.07.09-.11.12c-.05.03-.1.05-.16.07-.06.01-.12.02-.2.02ZM47.83,80.55v-1.13c0-.12-.03-.21-.09-.27-.06-.06-.15-.1-.26-.1-.07,0-.14.01-.21.03-.07.02-.13.05-.18.09l-.25-.17c.07-.08.16-.14.27-.19.11-.04.23-.07.37-.07.22,0,.4.06.52.17s.18.28.18.49v1.14h-.33Z"/>
    <path class="st13" d="M48.55,79.07v-.3h.89v.3h-.89ZM48.74,80.55v-2.02c0-.16.04-.27.11-.35s.18-.12.34-.12h.26v.33h-.25s-.06.01-.08.04c-.02.03-.02.06-.02.09v2.02h-.35Z"/>
    <path class="st13" d="M49.67,79.08v-.32h.8v.32h-.8ZM50.27,80.55c-.15,0-.25-.04-.32-.12s-.1-.2-.1-.35v-1.83h.35v1.84s0,.08.03.1c.02.02.04.04.08.04h.17v.33h-.2Z"/>
    <path class="st13" d="M51.68,80.57c-.25,0-.44-.07-.58-.21s-.2-.33-.2-.59v-.2c0-.27.07-.47.2-.62.13-.15.32-.22.55-.22.22,0,.4.08.52.25.12.16.18.39.18.69v.12h-1.2v-.28h.87c0-.14-.05-.26-.11-.34s-.15-.12-.26-.12c-.13,0-.23.04-.31.13s-.11.21-.11.37v.23c0,.15.04.26.12.34.08.08.19.12.33.12.07,0,.14-.01.21-.04.07-.03.13-.07.19-.12l.23.23c-.09.08-.19.15-.3.2-.11.05-.22.07-.33.07Z"/>
    <path class="st13" d="M52.83,80.55v-1.78h.35v1.78h-.35ZM53.81,79.19s-.07-.07-.12-.09-.1-.03-.16-.03c-.11,0-.2.03-.26.09s-.09.15-.09.25l-.04-.34c.05-.11.12-.19.21-.25.09-.06.18-.09.29-.09.08,0,.15.01.22.04s.12.06.17.1l-.23.31Z"/>
    <path class="st13" d="M55.13,79.08v-.32h.8v.32h-.8ZM55.73,80.55c-.15,0-.25-.04-.32-.12s-.1-.2-.1-.35v-1.83h.35v1.84s0,.08.03.1c.02.02.04.04.08.04h.17v.33h-.2Z"/>
    <path class="st13" d="M56.42,80.55v-2.49h.35v2.49h-.35ZM57.5,80.55v-1.08c0-.13-.03-.22-.1-.29-.06-.07-.16-.1-.27-.1s-.2.03-.26.09c-.06.06-.09.14-.09.25l-.04-.34c.05-.11.13-.19.21-.25.09-.06.19-.09.29-.09.19,0,.34.06.45.19.11.13.16.3.16.54v1.08h-.35Z"/>
    <path class="st13" d="M59.11,80.57c-.25,0-.44-.07-.58-.21s-.2-.33-.2-.59v-.2c0-.27.07-.47.2-.62.13-.15.32-.22.55-.22.22,0,.4.08.52.25.12.16.18.39.18.69v.12h-1.2v-.28h.87c0-.14-.05-.26-.11-.34s-.15-.12-.26-.12c-.13,0-.23.04-.31.13s-.11.21-.11.37v.23c0,.15.04.26.12.34.08.08.19.12.33.12.07,0,.14-.01.21-.04.07-.03.13-.07.19-.12l.23.23c-.09.08-.19.15-.3.2-.11.05-.22.07-.33.07Z"/>
    <path class="st13" d="M61.06,79.08v-.32h.8v.32h-.8ZM61.67,80.55c-.15,0-.25-.04-.32-.12s-.1-.2-.1-.35v-1.83h.35v1.84s0,.08.03.1c.02.02.04.04.08.04h.17v.33h-.2Z"/>
    <path class="st13" d="M62.35,80.55v-2.49h.35v2.49h-.35ZM63.43,80.55v-1.08c0-.13-.03-.22-.1-.29-.06-.07-.16-.1-.27-.1s-.2.03-.26.09c-.06.06-.09.14-.09.25l-.04-.34c.05-.11.13-.19.21-.25.09-.06.19-.09.29-.09.19,0,.34.06.45.19.11.13.16.3.16.54v1.08h-.35Z"/>
    <path class="st13" d="M65.04,80.57c-.25,0-.44-.07-.58-.21s-.2-.33-.2-.59v-.2c0-.27.07-.47.2-.62.13-.15.32-.22.55-.22.22,0,.4.08.52.25.12.16.18.39.18.69v.12h-1.2v-.28h.87c0-.14-.05-.26-.11-.34s-.15-.12-.26-.12c-.13,0-.23.04-.31.13s-.11.21-.11.37v.23c0,.15.04.26.12.34.08.08.19.12.33.12.07,0,.14-.01.21-.04.07-.03.13-.07.19-.12l.23.23c-.09.08-.19.15-.3.2-.11.05-.22.07-.33.07Z"/>
    <path class="st13" d="M67.76,80.57c-.16,0-.3-.02-.43-.07-.13-.05-.24-.12-.34-.21l.21-.26c.1.07.19.13.29.17s.19.05.28.05c.14,0,.24-.02.31-.06.07-.04.1-.11.1-.19,0-.07-.02-.11-.07-.14-.05-.03-.11-.05-.18-.05-.08,0-.16-.02-.24-.02-.07,0-.14-.01-.21-.03-.07-.01-.14-.03-.19-.06-.06-.03-.1-.08-.14-.14-.03-.06-.05-.14-.05-.25,0-.19.06-.33.17-.42s.29-.14.52-.14c.14,0,.27.02.39.06.12.04.23.09.34.17l-.21.25c-.09-.06-.18-.1-.26-.13-.09-.03-.17-.04-.25-.04-.12,0-.21.02-.27.06-.06.04-.09.1-.09.18,0,.05.02.09.06.12.04.02.1.04.16.04s.14.01.22.02c.07,0,.15.01.23.02s.15.04.21.07c.06.03.12.08.15.15s.06.16.06.28c0,.19-.06.33-.19.43s-.31.14-.56.14Z"/>
    <path class="st13" d="M69.68,80.57c-.25,0-.44-.07-.58-.21s-.2-.33-.2-.59v-.2c0-.27.07-.47.2-.62.13-.15.32-.22.55-.22.22,0,.4.08.52.25.12.16.18.39.18.69v.12h-1.2v-.28h.87c0-.14-.05-.26-.11-.34s-.15-.12-.26-.12c-.13,0-.23.04-.31.13s-.11.21-.11.37v.23c0,.15.04.26.12.34.08.08.19.12.33.12.07,0,.14-.01.21-.04.07-.03.13-.07.19-.12l.23.23c-.09.08-.19.15-.3.2-.11.05-.22.07-.33.07Z"/>
    <path class="st13" d="M71.47,80.57c-.16,0-.3-.02-.43-.07-.13-.05-.24-.12-.34-.21l.21-.26c.1.07.19.13.29.17s.19.05.28.05c.14,0,.24-.02.31-.06.07-.04.1-.11.1-.19,0-.07-.02-.11-.07-.14-.05-.03-.11-.05-.18-.05-.08,0-.16-.02-.24-.02-.07,0-.14-.01-.21-.03-.07-.01-.14-.03-.19-.06-.06-.03-.1-.08-.14-.14-.03-.06-.05-.14-.05-.25,0-.19.06-.33.17-.42s.29-.14.52-.14c.14,0,.27.02.39.06.12.04.23.09.34.17l-.21.25c-.09-.06-.18-.1-.26-.13-.09-.03-.17-.04-.25-.04-.12,0-.21.02-.27.06-.06.04-.09.1-.09.18,0,.05.02.09.06.12.04.02.1.04.16.04s.14.01.22.02c.07,0,.15.01.23.02s.15.04.21.07c.06.03.12.08.15.15s.06.16.06.28c0,.19-.06.33-.19.43s-.31.14-.56.14Z"/>
    <path class="st13" d="M73.29,80.57c-.16,0-.3-.02-.43-.07-.13-.05-.24-.12-.34-.21l.21-.26c.1.07.19.13.29.17s.19.05.28.05c.14,0,.24-.02.31-.06.07-.04.1-.11.1-.19,0-.07-.02-.11-.07-.14-.05-.03-.11-.05-.18-.05-.08,0-.16-.02-.24-.02-.07,0-.14-.01-.21-.03-.07-.01-.14-.03-.19-.06-.06-.03-.1-.08-.14-.14-.03-.06-.05-.14-.05-.25,0-.19.06-.33.17-.42s.29-.14.52-.14c.14,0,.27.02.39.06.12.04.23.09.34.17l-.21.25c-.09-.06-.18-.1-.26-.13-.09-.03-.17-.04-.25-.04-.12,0-.21.02-.27.06-.06.04-.09.1-.09.18,0,.05.02.09.06.12.04.02.1.04.16.04s.14.01.22.02c.07,0,.15.01.23.02s.15.04.21.07c.06.03.12.08.15.15s.06.16.06.28c0,.19-.06.33-.19.43s-.31.14-.56.14Z"/>
    <path class="st13" d="M74.48,78.4v-.35h.35v.35h-.35ZM74.48,80.55v-1.78h.35v1.78h-.35Z"/>
    <path class="st13" d="M76.04,80.57c-.23,0-.41-.07-.54-.2-.13-.13-.19-.33-.19-.57v-.29c0-.24.06-.43.19-.57s.31-.2.54-.2.41.07.54.2.19.32.19.57v.29c0,.25-.06.43-.19.57-.13.13-.31.2-.54.2ZM76.04,80.24c.12,0,.22-.04.28-.12.07-.08.1-.18.1-.32v-.29c0-.14-.03-.25-.1-.32-.07-.08-.16-.11-.28-.11s-.21.04-.28.11-.1.18-.1.32v.29c0,.14.03.25.1.32.07.08.16.12.28.12Z"/>
    <path class="st13" d="M77.27,80.55v-1.78h.35v1.78h-.35ZM78.35,80.55v-1.08c0-.13-.03-.22-.1-.29-.06-.07-.16-.1-.27-.1s-.2.03-.26.09c-.06.06-.09.15-.09.26l-.04-.34c.05-.11.13-.19.21-.25.09-.06.19-.09.29-.09.19,0,.34.06.45.19.11.13.16.3.16.54v1.08h-.35Z"/>
    <path class="st13" d="M80.04,79.08v-.32h.8v.32h-.8ZM80.64,80.55c-.15,0-.25-.04-.32-.12s-.1-.2-.1-.35v-1.83h.35v1.84s0,.08.03.1c.02.02.04.04.08.04h.17v.33h-.2Z"/>
    <path class="st13" d="M82,80.57c-.23,0-.41-.07-.54-.2-.13-.13-.19-.33-.19-.57v-.29c0-.24.06-.43.19-.57s.31-.2.54-.2.41.07.54.2.19.32.19.57v.29c0,.25-.06.43-.19.57-.13.13-.31.2-.54.2ZM82,80.24c.12,0,.22-.04.28-.12.07-.08.1-.18.1-.32v-.29c0-.14-.03-.25-.1-.32-.07-.08-.16-.11-.28-.11s-.21.04-.28.11-.1.18-.1.32v.29c0,.14.03.25.1.32.07.08.16.12.28.12Z"/>
    <path class="st13" d="M20.95,84.78c-.24,0-.43-.07-.57-.2-.13-.13-.2-.33-.2-.57v-.29c0-.24.07-.43.2-.57.13-.13.32-.2.57-.2.14,0,.27.02.38.07.11.05.2.12.27.21l-.25.23c-.05-.06-.11-.1-.17-.13-.07-.03-.14-.05-.21-.05-.14,0-.24.04-.31.11s-.11.18-.11.32v.29c0,.14.04.25.11.33.07.08.18.12.31.12.07,0,.14-.02.21-.05s.13-.08.17-.14l.25.24c-.07.09-.16.16-.27.21-.11.05-.24.07-.38.07Z"/>
    <path class="st13" d="M22.55,84.78c-.22,0-.38-.04-.49-.13-.11-.09-.16-.23-.16-.42,0-.18.05-.31.15-.4.1-.09.25-.13.45-.13h.51l.02.28h-.53c-.09,0-.16.02-.2.06-.05.04-.07.1-.07.19,0,.09.03.16.09.2.06.04.15.07.27.07.13,0,.23-.01.3-.04.07-.03.1-.07.1-.13l.04.25s-.07.09-.11.12c-.05.03-.1.05-.16.07-.06.01-.12.02-.2.02ZM22.98,84.76v-1.13c0-.12-.03-.21-.09-.27-.06-.06-.15-.1-.26-.1-.07,0-.14.01-.21.03-.07.02-.13.05-.18.09l-.25-.17c.07-.08.16-.14.27-.19.11-.04.23-.07.37-.07.22,0,.4.06.52.17s.18.28.18.49v1.14h-.33Z"/>
    <path class="st13" d="M24.2,82.27v2.03s0,.08.03.1c.02.02.04.04.08.04h.17v.33h-.21c-.13,0-.23-.04-.31-.12-.07-.08-.11-.2-.11-.35v-2.03h.35Z"/>
    <path class="st13" d="M24.85,84.76v-1.78h.35v1.78h-.35ZM25.91,84.76v-1.08c0-.13-.03-.22-.09-.29-.06-.07-.15-.1-.26-.1s-.2.03-.26.09c-.06.06-.09.15-.09.26l-.04-.34c.05-.11.13-.19.21-.25.09-.06.19-.09.29-.09.19,0,.33.06.44.19.1.13.15.3.15.54v1.08h-.35ZM26.97,84.76v-1.08c0-.13-.03-.22-.1-.29-.06-.07-.16-.1-.28-.1-.11,0-.19.03-.25.1-.06.07-.09.16-.09.28l-.07-.34c.06-.12.13-.21.22-.27.09-.06.19-.1.3-.1.19,0,.34.06.45.19.11.13.16.3.16.54v1.08h-.35Z"/>
    <path class="st13" d="M29.32,84.9l-.71-1.92h.36l.55,1.55-.19.38ZM29.83,82.98h.36l-.76,2.2c-.04.12-.1.21-.18.25-.08.05-.19.07-.33.07h-.07v-.34h.07c.07,0,.12-.01.16-.04s.07-.07.1-.14l.66-2.01Z"/>
    <path class="st13" d="M31.14,84.78c-.23,0-.41-.07-.54-.2-.13-.13-.19-.33-.19-.57v-.29c0-.24.06-.43.19-.57s.31-.2.54-.2.41.07.54.2.19.32.19.57v.29c0,.25-.06.43-.19.57-.13.13-.31.2-.54.2ZM31.14,84.45c.12,0,.22-.04.28-.12.07-.08.1-.18.1-.32v-.29c0-.14-.03-.25-.1-.32-.07-.08-.16-.11-.28-.11s-.21.04-.28.11-.1.18-.1.32v.29c0,.14.03.25.1.32.07.08.16.12.28.12Z"/>
    <path class="st13" d="M32.68,82.98v1.08c0,.12.03.22.09.29.06.07.15.1.27.1s.2-.03.27-.09.09-.15.09-.26l.02.37c-.03.08-.09.15-.17.21s-.18.09-.31.09c-.2,0-.35-.06-.46-.19-.11-.13-.16-.3-.16-.53v-1.08h.35ZM33.4,84.76v-1.78h.35v1.78h-.35Z"/>
    <path class="st13" d="M34.28,84.76v-1.78h.35v1.78h-.35ZM35.26,83.4s-.07-.07-.12-.09-.1-.03-.16-.03c-.11,0-.2.03-.26.09s-.09.15-.09.25l-.04-.34c.05-.11.12-.19.21-.25.09-.06.18-.09.29-.09.08,0,.15.01.22.04s.12.06.17.1l-.23.31Z"/>
    <path class="st13" d="M36.72,84.76v-1.78h.35v1.78h-.35ZM37.78,84.76v-1.08c0-.13-.03-.22-.09-.29-.06-.07-.15-.1-.26-.1s-.2.03-.26.09c-.06.06-.09.15-.09.26l-.04-.34c.05-.11.13-.19.21-.25.09-.06.19-.09.29-.09.19,0,.33.06.44.19.1.13.15.3.15.54v1.08h-.35ZM38.85,84.76v-1.08c0-.13-.03-.22-.1-.29-.06-.07-.16-.1-.28-.1-.11,0-.19.03-.25.1-.06.07-.09.16-.09.28l-.07-.34c.06-.12.13-.21.22-.27.09-.06.19-.1.3-.1.19,0,.34.06.45.19.11.13.16.3.16.54v1.08h-.35Z"/>
    <path class="st13" d="M39.73,82.62v-.35h.35v.35h-.35ZM39.73,84.76v-1.78h.35v1.78h-.35Z"/>
    <path class="st13" d="M40.61,84.76v-1.78h.35v1.78h-.35ZM41.69,84.76v-1.08c0-.13-.03-.22-.1-.29-.06-.07-.16-.1-.27-.1s-.2.03-.26.09c-.06.06-.09.15-.09.26l-.04-.34c.05-.11.13-.19.21-.25.09-.06.19-.09.29-.09.19,0,.34.06.45.19.11.13.16.3.16.54v1.08h-.35Z"/>
    <path class="st13" d="M43.13,84.79c-.2,0-.35-.06-.46-.19-.11-.13-.16-.3-.16-.53v-.39c0-.23.05-.41.16-.54.1-.13.25-.19.44-.19.1,0,.2.03.29.08.09.05.16.13.21.23l-.04.36c0-.08-.01-.14-.04-.19s-.07-.09-.12-.12c-.05-.03-.12-.04-.19-.04-.12,0-.2.04-.27.11-.06.07-.1.17-.1.3v.39c0,.13.03.23.1.3s.15.11.27.11c.07,0,.14-.01.19-.04.05-.03.09-.07.12-.13.03-.05.04-.12.04-.2l.02.38c-.03.08-.09.15-.17.21-.08.06-.18.1-.31.1ZM43.58,84.76v-2.49h.35v2.49h-.35Z"/>
  </g>
  <rect class="st10" x="206.07" y="130.91" width="25.01" height="14.45" rx="2.89" ry="2.89"/>
  <text class="st4" transform="translate(159.01 23.81)"><tspan x="0" y="0">type</tspan></text>
  <g>
    <g>
      <path class="st14" d="M145.34,23.01v.73h.94v.94h.73v-1.33l-.34-.34h-1.33Z"/>
      <path class="st14" d="M150.18,21.52v-.73h-.94v-.94h-.73v1.33l.34.34h1.33Z"/>
    </g>
    <g>
      <path class="st14" d="M150.18,23.01v.73h-.94v.94h-.73v-1.33l.34-.34h1.33Z"/>
      <path class="st14" d="M145.34,21.52v-.73h.94v-.94h.73v1.33l-.34.34h-1.33Z"/>
    </g>
  </g>
  <g>
    <path class="st13" d="M216.75,133.4l-2.56,2.56s-.1.06-.15.06h-2.59c-.12,0-.22.1-.22.22v3.77c0,.12.1.22.22.22h2.59c.06,0,.11.02.15.06l2.56,2.56c.14.14.37.04.37-.15v-9.16c0-.19-.24-.29-.37-.15Z"/>
    <text class="st6" transform="translate(220.08 140.53)"><tspan x="0" y="0">))</tspan></text>
  </g>
  <path class="st15" d="M268.14,37.78l.4-.4c.09-.09.09-.24,0-.33l-1.43-1.43c-.09-.09-.09-.24,0-.33l1.43-1.43c.09-.09.09-.24,0-.33l-.4-.4c-.09-.09-.24-.09-.33,0l-2.16,2.16c-.09.09-.09.24,0,.33l2.16,2.16c.09.09.24.09.33,0Z"/>
</svg>