<?xml version="1.0" encoding="UTF-8"?>
<svg id="Layer_1" xmlns="http://www.w3.org/2000/svg" version="1.1" viewBox="0 0 286.54 163.61">
  <!-- Generator: Adobe Illustrator 29.5.1, SVG Export Plug-In . SVG Version: 2.1.0 Build 141)  -->
  <defs>
    <style>
      .st0 {
        stroke-width: .11px;
      }

      .st0, .st1, .st2 {
        fill: none;
        stroke: #8d74b4;
        stroke-linecap: round;
        stroke-linejoin: round;
      }

      .st1 {
        stroke-width: .1px;
      }

      .st3 {
        fill: #63448f;
      }

      .st2 {
        stroke-width: .18px;
      }

      .st4 {
        fill: #171220;
      }

      .st5 {
        fill: #8d74b4;
      }
    </style>
  </defs>
  <path class="st4" d="M195.21,65.37H26.91c-1.06,0-2.07.42-2.82,1.17l-8,8c-.75.75-1.17,1.76-1.17,2.82v69.51c0,1.54,1.25,2.78,2.78,2.78h177.5c1.54,0,2.78-1.25,2.78-2.78v-78.71c0-1.54-1.25-2.78-2.78-2.78Z"/>
  <path class="st4" d="M204.15,65.37h55.48c1.06,0,2.07.42,2.82,1.17l8,8c.75.75,1.17,1.76,1.17,2.82v69.51c0,1.54-1.25,2.78-2.78,2.78h-64.68c-1.54,0-2.78-1.25-2.78-2.78v-78.71c0-1.54,1.25-2.78,2.78-2.78Z"/>
  <path class="st3" d="M15.98,70.41l4.14-4.14c.39-.39.11-1.05-.43-1.05h-3.28c-.81,0-1.47.66-1.47,1.47v3.28c0,.55.66.82,1.05.43Z"/>
  <line class="st2" x1="94.6" y1="69.17" x2="94.6" y2="132.41"/>
  <path class="st4" d="M195.21,63.31H26.91c-1.06,0-2.07-.42-2.82-1.17l-8-8c-.75-.75-1.17-1.76-1.17-2.82V16.75c0-1.54,1.25-2.78,2.78-2.78h177.5c1.54,0,2.78,1.25,2.78,2.78v43.77c0,1.54-1.25,2.78-2.78,2.78Z"/>
  <path class="st3" d="M15.98,58.12l4.14,4.14c.39.39.11,1.05-.43,1.05h-3.28c-.81,0-1.47-.66-1.47-1.47v-3.28c0-.55.66-.82,1.05-.43Z"/>
  <rect class="st1" x="17.61" y="139.77" width="32.81" height="6.98" rx="1.33" ry="1.33"/>
  <path class="st3" d="M19.29,54.2l-1.46-1.46c-.65-.65-1.01-1.53-1.01-2.44V18.12c0-1.14.93-2.07,2.07-2.07h116.43c1.14,0,2.07.93,2.07,2.07v32.17c0,.92-.36,1.79-1.01,2.44l-1.46,1.46c-.65.65-1.53,1.01-2.44,1.01H21.73c-.92,0-1.79-.36-2.44-1.01Z"/>
  <path class="st5" d="M133.05,18.86h-6.68c-.5,0-.9.4-.9.9v31.75c0,.5.4.9.9.9h4.03c.74,0,1.46-.3,1.99-.82l1.34-1.34c.53-.53.82-1.24.82-1.99v-27.89c0-.83-.67-1.51-1.51-1.51Z"/>
  <path class="st5" d="M142.97,60.62l-1.46-1.46c-.65-.65-1.01-1.53-1.01-2.44v-22.7c0-1.14.93-2.07,2.07-2.07h50.78c1.14,0,2.07.93,2.07,2.07v22.7c0,.92-.36,1.79-1.01,2.44l-1.46,1.46c-.65.65-1.53,1.01-2.44,1.01h-45.08c-.92,0-1.79-.36-2.44-1.01Z"/>
  <path class="st4" d="M204.15,63.41h55.48c1.06,0,2.07-.42,2.82-1.17l8-8c.75-.75,1.17-1.76,1.17-2.82V16.86c0-1.54-1.25-2.78-2.78-2.78h-64.68c-1.54,0-2.78,1.25-2.78,2.78v43.77c0,1.54,1.25,2.78,2.78,2.78Z"/>
  <g>
    <path class="st5" d="M261.09,27.38c.94,0,1.71.76,1.71,1.71v4.36c0,.79-.31,1.53-.87,2.09l-1.32,1.32c-.56.56-1.3.87-2.09.87h-44.69v-10.34h47.26M261.09,27.22h-47.42v10.67h44.85c.83,0,1.62-.33,2.21-.91l1.32-1.32c.58-.59.91-1.38.91-2.21v-4.36c0-1.03-.84-1.87-1.87-1.87h0Z"/>
    <path class="st5" d="M204.75,27.22c-.75,0-1.35.6-1.35,1.35v4.87c0,.83.33,1.62.91,2.21l1.32,1.32c.59.58,1.38.91,2.21.91h7.55v-10.67h-10.64Z"/>
  </g>
  <g>
    <path class="st5" d="M261.09,39.98c.94,0,1.71.76,1.71,1.71v4.36c0,.79-.31,1.53-.87,2.09l-1.32,1.32c-.56.56-1.3.87-2.09.87h-44.69v-10.34h47.26M261.09,39.82h-47.42v10.67h44.85c.83,0,1.62-.33,2.21-.91l1.32-1.32c.58-.59.91-1.38.91-2.21v-4.36c0-1.03-.84-1.87-1.87-1.87h0Z"/>
    <path class="st5" d="M204.75,39.82c-.75,0-1.35.6-1.35,1.35v4.87c0,.83.33,1.62.91,2.21l1.32,1.32c.59.58,1.38.91,2.21.91h7.55v-10.67h-10.64Z"/>
  </g>
  <path class="st5" d="M261.09,51.58c.94,0,1.71.76,1.71,1.71v4.36c0,.79-.31,1.53-.87,2.09l-1.32,1.32c-.56.56-1.3.87-2.09.87h-44.69v-10.34h47.26M261.09,51.42h-47.42v10.67h44.85c.83,0,1.62-.33,2.21-.91l1.32-1.32c.58-.59.91-1.38.91-2.21v-4.36c0-1.03-.84-1.87-1.87-1.87h0Z"/>
  <path class="st5" d="M204.75,51.42c-.75,0-1.35.6-1.35,1.35v4.87c0,.83.33,1.62.91,2.21l1.32,1.32c.59.58,1.38.91,2.21.91h7.55v-10.67h-10.64Z"/>
  <path class="st5" d="M261.09,15.78c.94,0,1.71.76,1.71,1.71v4.36c0,.79-.31,1.53-.87,2.09l-1.32,1.32c-.56.56-1.3.87-2.09.87h-43.4v-10.34h45.97M261.09,15.62h-46.14v10.67h43.57c.83,0,1.62-.33,2.21-.91l1.32-1.32c.58-.59.91-1.38.91-2.21v-4.36c0-1.03-.84-1.87-1.87-1.87h0Z"/>
  <path class="st5" d="M204.75,15.62c-.75,0-1.35.6-1.35,1.35v4.87c0,.83.33,1.62.91,2.21l1.32,1.32c.59.58,1.38.91,2.21.91h7.55v-10.67h-10.64Z"/>
  <path class="st5" d="M193.35,16.81c1.04,0,1.89.85,1.89,1.89v4.82c0,.87-.34,1.7-.96,2.31l-1.46,1.46c-.62.62-1.44.96-2.31.96h-38.46v-11.44h41.31M193.35,16.62h-41.49v11.81h38.64c.92,0,1.79-.36,2.44-1.01l1.46-1.46c.65-.65,1.01-1.53,1.01-2.44v-4.82c0-1.14-.93-2.07-2.07-2.07h0Z"/>
  <path class="st5" d="M141.99,16.62c-.83,0-1.5.67-1.5,1.5v5.4c0,.92.36,1.8,1.01,2.44l1.46,1.46c.65.65,1.53,1.01,2.44,1.01h8.36v-11.81h-11.78Z"/>
  <path class="st5" d="M126.5,138.77h-28.98c-.46,0-.83.37-.83.83v3c0,.51.2,1,.56,1.36l.81.81c.36.36.85.56,1.36.56h25.5c.51,0,1-.2,1.36-.56l.81-.81c.36-.36.56-.85.56-1.36v-2.68c0-.63-.51-1.15-1.15-1.15Z"/>
  <path class="st5" d="M159.6,138.77h-28.98c-.46,0-.83.37-.83.83v3c0,.51.2,1,.56,1.36l.81.81c.36.36.85.56,1.36.56h25.5c.51,0,1-.2,1.36-.56l.81-.81c.36-.36.56-.85.56-1.36v-2.68c0-.63-.51-1.15-1.15-1.15Z"/>
  <path class="st5" d="M192.71,138.77h-28.98c-.46,0-.83.37-.83.83v3c0,.51.2,1,.56,1.36l.81.81c.36.36.85.56,1.36.56h25.5c.51,0,1-.2,1.36-.56l.81-.81c.36-.36.56-.85.56-1.36v-2.68c0-.63-.51-1.15-1.15-1.15Z"/>
  <rect class="st0" x="205.98" y="130.88" width="25.01" height="14.45" rx="2.89" ry="2.89"/>
  <path class="st3" d="M268.05,37.74l.4-.4c.09-.09.09-.24,0-.33l-1.43-1.43c-.09-.09-.09-.24,0-.33l1.43-1.43c.09-.09.09-.24,0-.33l-.4-.4c-.09-.09-.24-.09-.33,0l-2.16,2.16c-.09.09-.09.24,0,.33l2.16,2.16c.09.09.24.09.33,0Z"/>
</svg>